<svg width="50" height="50" viewBox="0 0 50 50" fill="none" xmlns="http://www.w3.org/2000/svg">
<path fill-rule="evenodd" clip-rule="evenodd" d="M12 0C5.37258 0 0 5.37258 0 12V38C0 44.6274 5.37258 50 12 50H38C44.6274 50 50 44.6274 50 38V12C50 5.37258 44.6274 0 38 0H12ZM13 5C8.58172 5 5 8.58172 5 13V37C5 41.4183 8.58172 45 13 45H37C41.4183 45 45 41.4183 45 37V13C45 8.58172 41.4183 5 37 5H13Z" fill="#1E1E1E"/>
<circle cx="25.5" cy="24.5" r="10" fill="white" stroke="#1E1E1E" stroke-width="5"/>
<path d="M41 11.5C41 13.433 39.433 15 37.5 15C35.567 15 34 13.433 34 11.5C34 9.567 35.567 8 37.5 8C39.433 8 41 9.567 41 11.5Z" fill="#1E1E1E"/>
</svg>
